{"title":"Allen Ginsberg, Paul McCartney and others. Ballad of the Skeleto","uid":8226137,"size":75238869,"categoryP":"video","categoryS":"music_videos","magnet":"?xt=urn:btih:3cb9c1040634a6bf3d9c3031f5c0e31a85d9ae8f&amp;dn=Allen+Ginsberg%2C+Paul+McCartney+and+others.+Ballad+of+the+Skeleto&amp;tr=udp%3A%2F%2Ftracker.openbittorrent.com%3A80&amp;tr=udp%3A%2F%2Fopen.demonii.com%3A1337&amp;tr=udp%3A%2F%2Ftracker.coppersurfer.tk%3A6969&amp;tr=udp%3A%2F%2Fexodus.desync.com%3A6969","seeders":1,"leechers":0,"uploader":"orysia","files":5,"time":1362602686,"description":"year: 1997\nDirector: Gus Van Sant\nWriters: Allen Ginsberg, Gus Van Sant\nStars: Allen Ginsberg \nimdb http://www.imdb.com/title/tt0156320/?ref_=fn_al_tt_1\n\nquality: SATRip\n &lt;a href=&quot;\nhttp://imageshack.us/photo/my-images/38/78049007.png/&quot; rel=&quot;nofollow&quot; target=&quot;_NEW&quot;&gt;\nhttp://imageshack.us/photo/my-images/38/78049007.png/&lt;/a&gt; &lt;a href=&quot;\nhttp://imageshack.us/photo/my-images/825/19513786.png/&quot; rel=&quot;nofollow&quot; target=&quot;_NEW&quot;&gt;\nhttp://imageshack.us/photo/my-images/825/19513786.png/&lt;/a&gt; &lt;a href=&quot;\nhttp://imageshack.us/photo/my-images/687/31751760.png/&quot; rel=&quot;nofollow&quot; target=&quot;_NEW&quot;&gt;\nhttp://imageshack.us/photo/my-images/687/31751760.png/&lt;/a&gt;\n\nFormat : AVI\n      Format/Info : Audio Video Interleave\n      File size : 71.6 MiB\n      Duration : 3mn 58s\n      Overall bit rate : 2 521 Kbps\n      Writing application : VirtualDubMod 1.5.10.3 | www.virtualdub-fr.org || (build 2550/release)\n      Writing library : VirtualDubMod build 2550/release\n   Video #0\n      ID : 0\n      Format : MPEG-4 Visual\n      Format profile : Advanced Simple@L5\n      Format settings, BVOP : 1\n      Format settings, QPel : No\n      Format settings, GMC : No warppoints\n      Format settings, Matrix : Default (H.263)\n      Muxing mode : Packed bitstream\n      Codec ID : XVID\n      Codec ID/Hint : XviD\n      Duration : 3mn 58s\n      Bit rate : 2 319 Kbps\n      Width : 720 pixels\n      Height : 544 pixels\n      Display aspect ratio : 5:4\n      Original display aspect ratio : 4:3\n      Frame rate : 25.000 fps\n      Color space : YUV\n      Chroma subsampling : 4:2:0\n      Bit depth : 8 bits\n      Scan type : Progressive\n      Compression mode : Lossy\n      Bits/(Pixel*Frame) : 0.237\n      Stream size : 65.8 MiB (92%)\n      Writing library : XviD 1.2.1 (UTC 2008-12-04)\n   Audio #1\n      ID : 1\n      Format : MPEG Audio\n      Format version : Version 1\n      Format profile : Layer 3\n      Mode : Joint stereo\n      Mode extension : MS Stereo\n      Codec ID : 55\n      Codec ID/Hint : MP3\n      Duration : 3mn 58s\n      Bit rate mode : Constant\n      Bit rate : 192 Kbps\n      Channel(s) : 2 channels\n      Sampling rate : 48.0 KHz\n      Compression mode : Lossy\n      Stream size : 5.45 MiB (8%)\n      Alignment : Aligned on interleaves\n      Interleave, duration : 40 ms (1.00 video frame)\n      Interleave, preload duration : 504 ms","torrent":{"xt":"urn:btih:3cb9c1040634a6bf3d9c3031f5c0e31a85d9ae8f","amp;dn":"Allen+Ginsberg%2C+Paul+McCartney+and+others.+Ballad+of+the+Skeleto","amp;tr":["udp%3A%2F%2Ftracker.openbittorrent.com%3A80","udp%3A%2F%2Fopen.demonii.com%3A1337","udp%3A%2F%2Ftracker.coppersurfer.tk%3A6969","udp%3A%2F%2Fexodus.desync.com%3A6969"],"infoHash":"3cb9c1040634a6bf3d9c3031f5c0e31a85d9ae8f","infoHashBuffer":{"type":"Buffer","data":[60,185,193,4,6,52,166,191,61,156,48,49,245,192,227,26,133,217,174,143]},"announce":[],"urlList":[]}}